# xmcd
#
# Track frame offsets:
#	150
#	11787
#	22217
#	35277
#	45960
#	56537
#	68445
#	79362
#	91935
#	103587
#	113040
#	123940
#
# Disc length: 1854 seconds
#
# Revision: 0
# Processed by: cddbd v1.5.1PL0 Copyright (c) Steve Scherf et al.
# Submitted via: audiograbber 1.83.01
#
DISCID=8f073c0c
DTITLE=Various Artist - 100 Jukebox Hits: 50's and 60's Disc 4
DYEAR=1900
DGENRE=
TTITLE0=The Chantels - Maybe
TTITLE1=Pat Boone - Love Letters in the Sand
TTITLE2=The Coasters - Searchin'
TTITLE3=Fabian - Turn Me Loose
TTITLE4=Bobby Day - Little Bitty Pretty One
TTITLE5=Jimmie Rodgers - Secretly
TTITLE6=Sandy Nelson - Teen Beat
TTITLE7=The Platters - My Prayer
TTITLE8=Pat Boone - I Almost Lost My Mind
TTITLE9=Jimmy Clanton - Go, Jimmy, Go
TTITLE10=BIll Justis - Raunchy
TTITLE11=Patti Page - I Went to Your Wedding
EXTD=
EXTT0=
EXTT1=
EXTT2=
EXTT3=
EXTT4=
EXTT5=
EXTT6=
EXTT7=
EXTT8=
EXTT9=
EXTT10=
EXTT11=
PLAYORDER=
